<svg xmlns="http://www.w3.org/2000/svg" width="441" height="98" viewBox="0 0 441 98" fill="none"><path d="M85.2331 25.2089L69.9941 25.0152L66.4028 34.6243H63.4907L76.5943 0.0698853H79.3121L91.5421 34.9152H88.63L85.3299 25.2089H85.2331ZM70.8676 22.4914L84.2624 22.6852L77.8562 4.24353H77.759L70.8676 22.5886V22.4914Z" fill="white" fill-opacity="0.6"></path><path d="M109.499 32.6836L127.358 32.8779V35.3045L106.587 35.1102L106.975 0.458557H109.887L109.499 32.6836Z" fill="white" fill-opacity="0.6"></path><path d="M146.091 33.1684L163.951 33.3627V35.7893L143.18 35.4979L143.568 0.846252H146.48L146.091 33.1684Z" fill="white" fill-opacity="0.6"></path><path d="M204.329 20.5505L204.135 36.1775H201.321L201.709 1.52594H213.259C216.948 1.72007 219.859 2.49676 221.801 4.14683C223.742 5.79691 224.713 8.22339 224.713 11.3294C224.713 13.1736 224.13 14.8238 223.063 16.2797C221.995 17.7357 220.442 18.7064 218.501 19.3858C220.636 19.9682 222.189 20.9387 223.063 22.2976C223.936 23.7535 224.422 25.4034 224.422 27.5388V30.742C224.422 31.8097 224.422 32.7802 224.713 33.6538C224.907 34.5274 225.392 35.2071 225.975 35.7895V36.3719H223.063C222.48 35.7895 222.092 35.013 221.898 33.9453C221.704 32.8776 221.607 31.8097 221.607 30.742V27.5388C221.607 25.4034 221.024 23.7537 219.665 22.4919C218.306 21.2301 216.365 20.6476 213.939 20.5505H204.329ZM204.427 18.1239H212.774C215.88 18.221 218.209 17.6387 219.665 16.3769C221.121 15.1151 221.898 13.4648 221.898 11.3294C221.898 8.99989 221.218 7.25288 219.762 5.99106C218.307 4.72924 216.171 4.14674 213.259 4.04968H204.621L204.427 18.0268V18.1239Z" fill="white" fill-opacity="0.6"></path><path d="M268.585 22.3947C268.585 26.8596 267.226 30.4508 264.8 33.1686C262.276 35.8864 258.976 37.2456 254.899 37.1485C250.823 37.1485 247.619 35.6926 245.193 32.8777C242.766 30.0629 241.602 26.471 241.699 22.0061V16.3769C241.796 11.912 243.057 8.32078 245.484 5.60302C247.911 2.88525 251.211 1.52594 255.287 1.52594C259.461 1.52594 262.664 2.98191 265.091 5.79674C267.518 8.61157 268.682 12.2029 268.682 16.6678V22.2976L268.585 22.3947ZM265.77 16.7649C265.77 12.9795 264.897 9.97048 263.052 7.64096C261.208 5.31145 258.588 4.14683 255.19 4.14683C251.89 4.14683 249.27 5.2142 247.425 7.44665C245.581 9.6791 244.61 12.6886 244.61 16.474V22.2004C244.513 25.9859 245.387 28.9949 247.231 31.3244C249.076 33.6539 251.599 34.8185 254.899 34.8185C258.296 34.8185 260.917 33.7511 262.858 31.5187C264.8 29.2862 265.77 26.2773 265.77 22.3947V16.6678V16.7649Z" fill="white" fill-opacity="0.6"></path><path d="M310.225 2.78764L309.934 25.7915C309.934 29.577 308.672 32.5864 306.343 34.7218C304.013 36.8572 301.004 37.8273 297.316 37.8273C293.724 37.8273 290.716 36.6628 288.483 34.5275C286.251 32.3921 285.086 29.3833 285.183 25.5978L285.474 2.59332H288.289L287.998 25.6944C287.998 28.7033 288.872 31.0334 290.619 32.8776C292.366 34.6247 294.598 35.4979 297.413 35.595C300.228 35.595 302.557 34.8184 304.401 33.0713C306.246 31.3241 307.119 28.9948 307.216 25.9859L307.508 2.98195H310.322L310.225 2.78764Z" fill="white" fill-opacity="0.6"></path><path d="M353.515 37.9245L350.603 37.8273L331.288 8.02947H331.191L330.802 37.6336H327.988L328.376 2.98199H331.191L350.603 32.7804H350.7L351.089 3.17631L353.904 3.27288L353.515 37.9245Z" fill="white" fill-opacity="0.6"></path><path d="M372.152 38.1189L372.54 3.46735H383.12C387.391 3.66147 390.885 5.11763 393.602 7.93246C396.32 10.7473 397.679 14.4357 397.679 18.9006V23.3652C397.582 27.8301 396.126 31.4213 393.311 34.139C390.496 36.9539 387.002 38.3132 382.731 38.2161H372.152V38.1189ZM375.355 5.89392L375.063 35.6924H382.731C386.129 35.7894 389.041 34.6249 391.273 32.2954C393.505 29.9659 394.67 26.8593 394.67 23.268V18.7063C394.767 15.115 393.7 12.1061 391.467 9.67953C389.235 7.25295 386.42 5.99108 383.023 5.99108H375.355V5.89392Z" fill="white" fill-opacity="0.6"></path><path d="M7.77663 79.9525V92.4734H0.690918L1.07925 57.8218H14.28C18.2596 58.016 21.3656 59.0839 23.6951 61.1222C25.9276 63.1606 27.0923 65.8785 26.9952 69.1786C26.9952 72.4788 25.8303 75.1966 23.5008 77.1379C21.1713 79.1762 18.0653 80.0497 14.0857 80.0497H7.77663V79.9525ZM7.77663 74.517H14.0857C16.0269 74.6141 17.4828 74.1285 18.5505 73.0608C19.5211 71.9931 20.1035 70.6345 20.1035 69.0815C20.1035 67.4314 19.6183 66.0726 18.6477 64.9078C17.677 63.8401 16.2213 63.2573 14.28 63.2573H7.97065L7.87379 74.6142L7.77663 74.517Z" fill="white" fill-opacity="0.6"></path><path d="M61.4525 77.8168L48.5432 77.7203L48.4461 87.6203L63.7819 87.8146L63.6851 93.153L41.4575 92.8621L41.8459 58.2105L64.0731 58.4042L63.9762 63.8403L48.7373 63.646L48.6401 72.3813L61.4525 72.4785V77.8168Z" fill="white" fill-opacity="0.6"></path><path d="M85.427 79.468L85.2329 93.3479H78.2444L78.6324 58.5992L90.6684 58.7935C94.648 58.7935 97.6568 59.7639 99.8893 61.6081C102.122 63.4523 103.189 65.9762 103.189 69.1793C103.189 70.9265 102.704 72.4792 101.733 73.741C100.763 75.0028 99.404 76.0706 97.5598 76.8471C99.5982 77.5265 101.054 78.4972 101.928 79.9532C102.801 81.4091 103.286 83.1561 103.189 85.1944V87.7181C103.189 88.6887 103.189 89.6593 103.481 90.727C103.772 91.7947 104.16 92.5712 104.84 93.0565V93.5423H97.657C96.9776 92.9599 96.5894 92.0861 96.4923 90.9214C96.2982 89.7566 96.2009 88.5915 96.298 87.5238V85.0972C96.298 83.3501 95.9099 81.9914 94.9392 81.0207C93.9686 80.0501 92.7068 79.5651 90.9596 79.5651H85.427V79.468ZM85.5241 74.1296H90.4741C92.4154 74.1296 93.8715 73.838 94.8421 73.0615C95.8127 72.285 96.298 71.0231 96.298 69.373C96.298 67.82 95.8128 66.5587 94.9392 65.588C93.9686 64.6174 92.6095 64.1319 90.7653 64.1319H85.7181L85.621 74.1296H85.5241Z" fill="white" fill-opacity="0.6"></path><path d="M139.588 79.5653L126.29 79.4681L126.096 93.8333L119.108 93.7361L119.496 59.0845L142.209 59.376V64.7144L126.388 64.52L126.29 74.0326L139.588 74.2264V79.5653Z" fill="white" fill-opacity="0.6"></path><path d="M184.237 80.2437C184.237 84.5145 182.781 88.0089 180.064 90.7267C177.346 93.4445 173.852 94.8032 169.581 94.8032C165.31 94.8032 161.816 93.3478 159.195 90.533C156.574 87.7182 155.216 84.2236 155.313 79.9529V73.7407C155.41 69.4699 156.769 65.9755 159.486 63.2577C162.204 60.5399 165.698 59.1812 169.872 59.1812C174.143 59.1812 177.637 60.6372 180.355 63.452C182.976 66.2668 184.334 69.7614 184.237 74.0322V80.2437ZM177.346 73.935C177.346 71.2172 176.763 68.9848 175.405 67.2376C174.046 65.4905 172.202 64.6167 169.872 64.6167C167.543 64.6167 165.698 65.3933 164.34 67.1405C162.981 68.8876 162.301 71.0229 162.301 73.7407V80.05C162.204 82.7678 162.786 85.0003 164.145 86.7474C165.407 88.4945 167.251 89.3677 169.581 89.3677C172.008 89.3677 173.852 88.5917 175.211 86.8446C176.569 85.0974 177.249 82.8649 177.249 80.1472V73.8378L177.346 73.935Z" fill="white" fill-opacity="0.6"></path><path d="M206.368 80.9234L206.174 94.8034H199.185L199.573 60.0552H211.609C215.589 60.2494 218.598 61.2199 220.83 62.967C223.063 64.8112 224.13 67.3345 224.13 70.5376C224.13 72.2848 223.645 73.8381 222.674 75.0999C221.704 76.3617 220.345 77.4295 218.501 78.206C220.539 78.8854 221.995 79.8561 222.868 81.3121C223.742 82.768 224.227 84.515 224.13 86.5533V89.077C224.13 90.0476 224.13 91.0182 224.422 92.0859C224.713 93.1536 225.101 93.93 225.78 94.4154V94.9006H218.598C218.015 94.4152 217.53 93.5416 217.433 92.3768C217.239 91.2121 217.142 90.0475 217.239 88.9799V86.5533C217.239 84.8061 216.851 83.4474 215.88 82.4768C214.909 81.5062 213.647 81.0206 211.9 81.0206H206.368V80.9234ZM206.465 75.4879H211.415C213.356 75.4879 214.812 75.1968 215.783 74.3232C216.753 73.5467 217.239 72.2849 217.239 70.6348C217.239 69.0818 216.753 67.7233 215.88 66.8498C214.909 65.8791 213.55 65.3936 211.706 65.3936H206.659L206.562 75.3908L206.465 75.4879Z" fill="white" fill-opacity="0.6"></path><path d="M258.102 86.1649L258.297 86.262L267.518 60.7344L276.544 60.831L276.156 95.5797L269.168 95.4826L269.459 71.7991H269.362L260.529 95.386L255.773 95.2888L247.425 71.5083H247.328L247.037 95.1917L240.146 95.0945L240.534 60.4429L249.658 60.5401L258.102 86.1649Z" fill="white" fill-opacity="0.6"></path><path d="M310.905 88.4945H299.646L297.219 95.7742H289.939L301.975 61.1226H309.061L320.32 95.9685H313.04L310.808 88.3973L310.905 88.4945ZM301.393 82.8647H309.255L305.566 70.7318H305.372L301.393 82.8647Z" fill="white" fill-opacity="0.6"></path><path d="M361.474 96.5505L354.583 96.4534L340.8 72.8671L340.703 72.9637L340.412 96.2591L333.52 96.1619L333.909 61.5103L340.8 61.6075L354.486 85.0966H354.68L354.971 61.8018H361.863L361.474 96.5505Z" fill="white" fill-opacity="0.6"></path><path d="M403.794 85.4852C403.794 89.3677 402.629 92.1823 400.3 94.3177C397.97 96.356 394.767 97.4237 390.69 97.3266C386.517 97.3266 383.217 95.8707 380.693 93.153C378.169 90.4352 376.907 86.9409 377.004 82.7672V75.8761C377.102 71.6053 378.46 68.2081 380.984 65.5874C383.508 62.9667 386.808 61.6076 390.787 61.7046C395.058 61.7046 398.261 62.7725 400.688 64.9079C403.017 67.0433 404.182 69.9548 404.085 73.6432V73.8375H397.291C397.291 71.6051 396.805 69.9549 395.738 68.8872C394.67 67.8195 393.02 67.2373 390.787 67.2373C388.749 67.2373 387.099 68.0138 385.934 69.6639C384.769 71.3139 384.09 73.4492 384.09 76.1669V83.0586C383.993 85.6793 384.575 87.9116 385.837 89.5617C387.002 91.2118 388.749 92.0855 390.884 92.1826C392.923 92.1826 394.476 91.6969 395.544 90.6292C396.611 89.5615 397.096 87.9119 397.096 85.5824H403.794V85.4852Z" fill="white" fill-opacity="0.6"></path><path d="M438.348 82.1855L425.536 81.9918L425.439 91.8918L440.678 92.0861L440.581 97.4245L418.353 97.1336L418.742 62.482L440.969 62.7729L440.872 68.1112L425.633 67.9175L425.536 76.6528L438.445 76.75L438.348 82.1855Z" fill="white" fill-opacity="0.6"></path></svg>